<mxfile host="app.diagrams.net" modified="2022-01-26T06:34:41.706Z" agent="5.0 (Windows NT 10.0; Win64; x64) AppleWebKit/537.36 (KHTML, like Gecko) Chrome/97.0.4692.99 Safari/537.36" etag="wDTgg0zAYrRf81ICQ-lw" version="16.4.6" type="github">
  <diagram id="5GKKRH1ZX8p6o7M6Lh7a" name="第 1 页">
    <mxGraphModel dx="942" dy="719" grid="1" gridSize="10" guides="1" tooltips="1" connect="1" arrows="1" fold="1" page="1" pageScale="1" pageWidth="1169" pageHeight="827" math="0" shadow="0">
      <root>
        <mxCell id="0" />
        <mxCell id="1" parent="0" />
        <mxCell id="031r3G9UxsKGXuFJxcjB-1" value="&lt;pre style=&quot;background-color: #292a30 ; color: #dfdfe0 ; font-family: &amp;quot;jetbrains mono&amp;quot; , monospace ; font-size: 10.5pt&quot;&gt;&lt;span style=&quot;color: #f97bb0 ; font-weight: bold&quot;&gt;private final &lt;/span&gt;&lt;span style=&quot;color: #82e6ff&quot;&gt;AtomicInteger &lt;/span&gt;&lt;span style=&quot;color: #49b0ce&quot;&gt;ctl &lt;/span&gt;= &lt;span style=&quot;color: #f97bb0 ; font-weight: bold&quot;&gt;new &lt;/span&gt;&lt;span style=&quot;color: #75c2b3&quot;&gt;AtomicInteger&lt;/span&gt;(&lt;span style=&quot;font-style: italic&quot;&gt;ctlOf&lt;/span&gt;(&lt;span style=&quot;color: #49b0ce ; font-style: italic&quot;&gt;RUNNING&lt;/span&gt;, &lt;span style=&quot;color: #d7c781&quot;&gt;0&lt;/span&gt;));&lt;br&gt;&lt;span style=&quot;color: #f97bb0 ; font-weight: bold&quot;&gt;private static final int &lt;/span&gt;&lt;span style=&quot;color: #49b0ce ; font-style: italic&quot;&gt;COUNT_BITS &lt;/span&gt;= &lt;span style=&quot;color: #82e6ff&quot;&gt;Integer&lt;/span&gt;.&lt;span style=&quot;color: #49b0ce ; font-style: italic&quot;&gt;SIZE &lt;/span&gt;- &lt;span style=&quot;color: #d7c781&quot;&gt;3&lt;/span&gt;;&lt;br&gt;&lt;span style=&quot;color: #f97bb0 ; font-weight: bold&quot;&gt;private static final int &lt;/span&gt;&lt;span style=&quot;color: #49b0ce ; font-style: italic&quot;&gt;CAPACITY   &lt;/span&gt;= (&lt;span style=&quot;color: #d7c781&quot;&gt;1 &lt;/span&gt;&amp;lt;&amp;lt; &lt;span style=&quot;color: #49b0ce ; font-style: italic&quot;&gt;COUNT_BITS&lt;/span&gt;) - &lt;span style=&quot;color: #d7c781&quot;&gt;1&lt;/span&gt;;&lt;br&gt;&lt;br&gt;&lt;span style=&quot;color: #7f8c99&quot;&gt;// runState is stored in the high-order bits&lt;br&gt;&lt;/span&gt;&lt;span style=&quot;color: #f97bb0 ; font-weight: bold&quot;&gt;private static final int &lt;/span&gt;&lt;span style=&quot;color: #49b0ce ; font-style: italic&quot;&gt;RUNNING    &lt;/span&gt;= -&lt;span style=&quot;color: #d7c781&quot;&gt;1 &lt;/span&gt;&amp;lt;&amp;lt; &lt;span style=&quot;color: #49b0ce ; font-style: italic&quot;&gt;COUNT_BITS&lt;/span&gt;;&lt;br&gt;&lt;span style=&quot;color: #f97bb0 ; font-weight: bold&quot;&gt;private static final int &lt;/span&gt;&lt;span style=&quot;color: #49b0ce ; font-style: italic&quot;&gt;SHUTDOWN   &lt;/span&gt;=  &lt;span style=&quot;color: #d7c781&quot;&gt;0 &lt;/span&gt;&amp;lt;&amp;lt; &lt;span style=&quot;color: #49b0ce ; font-style: italic&quot;&gt;COUNT_BITS&lt;/span&gt;;&lt;br&gt;&lt;span style=&quot;color: #f97bb0 ; font-weight: bold&quot;&gt;private static final int &lt;/span&gt;&lt;span style=&quot;color: #49b0ce ; font-style: italic&quot;&gt;STOP       &lt;/span&gt;=  &lt;span style=&quot;color: #d7c781&quot;&gt;1 &lt;/span&gt;&amp;lt;&amp;lt; &lt;span style=&quot;color: #49b0ce ; font-style: italic&quot;&gt;COUNT_BITS&lt;/span&gt;;&lt;br&gt;&lt;span style=&quot;color: #f97bb0 ; font-weight: bold&quot;&gt;private static final int &lt;/span&gt;&lt;span style=&quot;color: #49b0ce ; font-style: italic&quot;&gt;TIDYING    &lt;/span&gt;=  &lt;span style=&quot;color: #d7c781&quot;&gt;2 &lt;/span&gt;&amp;lt;&amp;lt; &lt;span style=&quot;color: #49b0ce ; font-style: italic&quot;&gt;COUNT_BITS&lt;/span&gt;;&lt;br&gt;&lt;span style=&quot;color: #f97bb0 ; font-weight: bold&quot;&gt;private static final int &lt;/span&gt;&lt;span style=&quot;color: #49b0ce ; font-style: italic&quot;&gt;TERMINATED &lt;/span&gt;=  &lt;span style=&quot;color: #d7c781&quot;&gt;3 &lt;/span&gt;&amp;lt;&amp;lt; &lt;span style=&quot;color: #49b0ce ; font-style: italic&quot;&gt;COUNT_BITS&lt;/span&gt;;&lt;br&gt;&lt;br&gt;&lt;span style=&quot;color: #7f8c99&quot;&gt;// Packing and unpacking ctl&lt;br&gt;&lt;/span&gt;&lt;span style=&quot;color: #f97bb0 ; font-weight: bold&quot;&gt;private static int &lt;/span&gt;&lt;span style=&quot;color: #75c2b3&quot;&gt;runStateOf&lt;/span&gt;(&lt;span style=&quot;color: #f97bb0 ; font-weight: bold&quot;&gt;int &lt;/span&gt;&lt;span style=&quot;color: #fcfcfc&quot;&gt;c&lt;/span&gt;)     { &lt;span style=&quot;color: #f97bb0 ; font-weight: bold&quot;&gt;return &lt;/span&gt;&lt;span style=&quot;color: #fcfcfc&quot;&gt;c &lt;/span&gt;&amp;amp; ~&lt;span style=&quot;color: #49b0ce ; font-style: italic&quot;&gt;CAPACITY&lt;/span&gt;; }&lt;br&gt;&lt;span style=&quot;color: #f97bb0 ; font-weight: bold&quot;&gt;private static int &lt;/span&gt;&lt;span style=&quot;color: #75c2b3&quot;&gt;workerCountOf&lt;/span&gt;(&lt;span style=&quot;color: #f97bb0 ; font-weight: bold&quot;&gt;int &lt;/span&gt;&lt;span style=&quot;color: #fcfcfc&quot;&gt;c&lt;/span&gt;)  { &lt;span style=&quot;color: #f97bb0 ; font-weight: bold&quot;&gt;return &lt;/span&gt;&lt;span style=&quot;color: #fcfcfc&quot;&gt;c &lt;/span&gt;&amp;amp; &lt;span style=&quot;color: #49b0ce ; font-style: italic&quot;&gt;CAPACITY&lt;/span&gt;; }&lt;br&gt;&lt;span style=&quot;color: #f97bb0 ; font-weight: bold&quot;&gt;private static int &lt;/span&gt;&lt;span style=&quot;color: #75c2b3&quot;&gt;ctlOf&lt;/span&gt;(&lt;span style=&quot;color: #f97bb0 ; font-weight: bold&quot;&gt;int &lt;/span&gt;&lt;span style=&quot;color: #fcfcfc&quot;&gt;rs&lt;/span&gt;, &lt;span style=&quot;color: #f97bb0 ; font-weight: bold&quot;&gt;int &lt;/span&gt;&lt;span style=&quot;color: #fcfcfc&quot;&gt;wc&lt;/span&gt;) { &lt;span style=&quot;color: #f97bb0 ; font-weight: bold&quot;&gt;return &lt;/span&gt;&lt;span style=&quot;color: #fcfcfc&quot;&gt;rs &lt;/span&gt;| &lt;span style=&quot;color: #fcfcfc&quot;&gt;wc&lt;/span&gt;; }&lt;/pre&gt;" style="text;whiteSpace=wrap;html=1;" vertex="1" parent="1">
          <mxGeometry x="170" y="20" width="530" height="300" as="geometry" />
        </mxCell>
        <mxCell id="031r3G9UxsKGXuFJxcjB-2" value="ctl=-536870912&lt;br style=&quot;font-size: 14px;&quot;&gt;COUNT_BITS=29&lt;br style=&quot;font-size: 14px;&quot;&gt;CAPACITY=536870911" style="rounded=0;whiteSpace=wrap;html=1;fillColor=#d5e8d4;strokeColor=#82b366;fontSize=14;" vertex="1" parent="1">
          <mxGeometry x="170" y="340" width="190" height="76" as="geometry" />
        </mxCell>
        <mxCell id="031r3G9UxsKGXuFJxcjB-3" value="&lt;div&gt;原码：10000000 00000000 00000000 00000001&lt;/div&gt;&lt;div&gt;反码：11111111 11111111 11111111 11111110（原码符号位不变、数值位取反）&lt;/div&gt;&lt;div&gt;补码：11111111 11111111 11111111 11111111（反码+1）&lt;/div&gt;&lt;div&gt;左移：&lt;b&gt;&lt;font color=&quot;#cc0000&quot;&gt;111&lt;/font&gt;00000 00000000 00000000 00000000&lt;/b&gt;&lt;/div&gt;" style="rounded=0;whiteSpace=wrap;html=1;fillColor=#d5e8d4;strokeColor=#82b366;fontSize=14;align=left;" vertex="1" parent="1">
          <mxGeometry x="170" y="496" width="520" height="90" as="geometry" />
        </mxCell>
        <mxCell id="031r3G9UxsKGXuFJxcjB-4" value="&lt;h4 style=&quot;box-sizing: inherit; font-family: &amp;quot;pingfang sc&amp;quot;, &amp;quot;helvetica neue&amp;quot;, &amp;quot;microsoft yahei ui&amp;quot;, &amp;quot;microsoft yahei&amp;quot;, &amp;quot;noto sans cjk sc&amp;quot;, sathu, eucrosiaupc, arial, helvetica, sans-serif; line-height: 1.8; margin: 30px 0px 15px; font-weight: bold; padding: 0px; font-size: 18px; border: none; color: rgb(0, 0, 0); font-style: normal; letter-spacing: normal; text-align: justify; text-indent: 0px; text-transform: none; word-spacing: 0px; background-color: rgb(255, 255, 255);&quot;&gt;RUNNING = -1 &amp;lt;&amp;lt; 29&lt;/h4&gt;" style="text;whiteSpace=wrap;html=1;fontSize=14;" vertex="1" parent="1">
          <mxGeometry x="170" y="416" width="220" height="90" as="geometry" />
        </mxCell>
        <mxCell id="031r3G9UxsKGXuFJxcjB-5" value="&lt;h4 style=&quot;box-sizing: inherit; font-family: &amp;quot;pingfang sc&amp;quot;, &amp;quot;helvetica neue&amp;quot;, &amp;quot;microsoft yahei ui&amp;quot;, &amp;quot;microsoft yahei&amp;quot;, &amp;quot;noto sans cjk sc&amp;quot;, sathu, eucrosiaupc, arial, helvetica, sans-serif; line-height: 1.8; margin: 30px 0px 15px; font-weight: bold; padding: 0px; font-size: 18px; border: none; color: rgb(0, 0, 0); font-style: normal; letter-spacing: normal; text-align: justify; text-indent: 0px; text-transform: none; word-spacing: 0px; background-color: rgb(255, 255, 255);&quot;&gt;SHUTDOWN = 0 &amp;lt;&amp;lt; 29&lt;/h4&gt;" style="text;whiteSpace=wrap;html=1;fontSize=14;fontFamily=Comic Sans MS;" vertex="1" parent="1">
          <mxGeometry x="170" y="586" width="240" height="90" as="geometry" />
        </mxCell>
        <mxCell id="031r3G9UxsKGXuFJxcjB-6" value="&lt;div&gt;初始值：00000000 00000000 00000000 00000000&lt;/div&gt;&lt;div&gt;左移后：&lt;b&gt;&lt;font color=&quot;#cc0000&quot;&gt;000&lt;/font&gt;00000 00000000 00000000 00000000&lt;/b&gt;&lt;/div&gt;" style="rounded=0;whiteSpace=wrap;html=1;fillColor=#d5e8d4;strokeColor=#82b366;fontSize=14;align=left;" vertex="1" parent="1">
          <mxGeometry x="170" y="666" width="520" height="90" as="geometry" />
        </mxCell>
        <mxCell id="031r3G9UxsKGXuFJxcjB-7" value="&lt;div&gt;初始值：00000000 00000000 00000000 00000001&lt;/div&gt;&lt;div&gt;左移后：&lt;b&gt;&lt;font color=&quot;#cc0000&quot;&gt;001&lt;/font&gt;00000 00000000 00000000 00000000&lt;/b&gt;&lt;/div&gt;" style="rounded=0;whiteSpace=wrap;html=1;fillColor=#d5e8d4;strokeColor=#82b366;fontSize=14;align=left;" vertex="1" parent="1">
          <mxGeometry x="750" y="326" width="520" height="90" as="geometry" />
        </mxCell>
        <mxCell id="031r3G9UxsKGXuFJxcjB-8" value="&lt;h4 style=&quot;box-sizing: inherit ; font-family: &amp;#34;pingfang sc&amp;#34; , &amp;#34;helvetica neue&amp;#34; , &amp;#34;microsoft yahei ui&amp;#34; , &amp;#34;microsoft yahei&amp;#34; , &amp;#34;noto sans cjk sc&amp;#34; , &amp;#34;sathu&amp;#34; , &amp;#34;eucrosiaupc&amp;#34; , &amp;#34;arial&amp;#34; , &amp;#34;helvetica&amp;#34; , sans-serif ; line-height: 1.8 ; margin: 30px 0px 15px ; padding: 0px ; font-size: 18px ; border: none ; text-align: justify ; background-color: rgb(255 , 255 , 255)&quot;&gt;STOP = 1 &amp;lt;&amp;lt; 29&lt;/h4&gt;" style="text;whiteSpace=wrap;html=1;fontSize=14;" vertex="1" parent="1">
          <mxGeometry x="750" y="246" width="220" height="90" as="geometry" />
        </mxCell>
        <mxCell id="031r3G9UxsKGXuFJxcjB-9" value="&lt;h4 style=&quot;box-sizing: inherit ; font-family: &amp;#34;pingfang sc&amp;#34; , &amp;#34;helvetica neue&amp;#34; , &amp;#34;microsoft yahei ui&amp;#34; , &amp;#34;microsoft yahei&amp;#34; , &amp;#34;noto sans cjk sc&amp;#34; , &amp;#34;sathu&amp;#34; , &amp;#34;eucrosiaupc&amp;#34; , &amp;#34;arial&amp;#34; , &amp;#34;helvetica&amp;#34; , sans-serif ; line-height: 1.8 ; margin: 30px 0px 15px ; padding: 0px ; font-size: 18px ; border: none ; text-align: justify ; background-color: rgb(255 , 255 , 255)&quot;&gt;TIDYING = 2 &amp;lt;&amp;lt; 29&lt;/h4&gt;&lt;h4 style=&quot;box-sizing: inherit ; font-family: &amp;#34;pingfang sc&amp;#34; , &amp;#34;helvetica neue&amp;#34; , &amp;#34;microsoft yahei ui&amp;#34; , &amp;#34;microsoft yahei&amp;#34; , &amp;#34;noto sans cjk sc&amp;#34; , &amp;#34;sathu&amp;#34; , &amp;#34;eucrosiaupc&amp;#34; , &amp;#34;arial&amp;#34; , &amp;#34;helvetica&amp;#34; , sans-serif ; line-height: 1.8 ; margin: 30px 0px 15px ; padding: 0px ; font-size: 18px ; border: none ; text-align: justify ; background-color: rgb(255 , 255 , 255)&quot;&gt;&lt;pre class=&quot;hljs yaml&quot; style=&quot;box-sizing: border-box ; font-family: &amp;#34;consolas&amp;#34; , &amp;#34;monaco&amp;#34; , &amp;#34;andale mono&amp;#34; , &amp;#34;ubuntu mono&amp;#34; , monospace ; font-size: 13px ; word-break: break-word ; overflow-wrap: normal ; overflow: auto ; position: relative ; margin-top: 10px ; margin-bottom: 10px ; padding: 1em ; border: none ; border-radius: 5px ; line-height: 1.5 ; background: rgb(246 , 246 , 246) ; color: rgb(51 , 51 , 51) ; font-weight: 400 ; box-shadow: rgba(0 , 0 , 0 , 0.55) 0px 2px 10px&quot;&gt;&lt;span style=&quot;box-sizing: inherit ; display: block ; background: url(&amp;#34;https://oscimg.oschina.net/oscnet/c1e1eed3-4944-40b0-98a7-4d173758b9a6.png&amp;#34;)&quot;&gt;&lt;/span&gt;&lt;code style=&quot;box-sizing: inherit ; font-family: &amp;#34;operator mono&amp;#34; , &amp;#34;consolas&amp;#34; , &amp;#34;monaco&amp;#34; , &amp;#34;menlo&amp;#34; , monospace ; font-size: 12px ; margin: 0px ; padding: 15px 16px 16px ; border: none ; border-radius: 5px ; background: rgb(40 , 44 , 52) ; color: rgb(171 , 178 , 191) ; overflow: auto visible ; word-break: normal ; line-height: 1.5&quot;&gt;&lt;span class=&quot;hljs-string&quot; style=&quot;box-sizing: inherit ; color: rgb(3 , 47 , 98)&quot;&gt;初始值：00000000&lt;/span&gt;&amp;nbsp;&lt;span class=&quot;hljs-number&quot; style=&quot;box-sizing: inherit&quot;&gt;00000000&lt;/span&gt;&amp;nbsp;&lt;span class=&quot;hljs-number&quot; style=&quot;box-sizing: inherit&quot;&gt;00000000&lt;/span&gt;&amp;nbsp;&lt;span class=&quot;hljs-number&quot; style=&quot;box-sizing: inherit&quot;&gt;00000010&lt;/span&gt;&lt;/code&gt;&lt;/pre&gt;&lt;/h4&gt;" style="text;whiteSpace=wrap;html=1;fontSize=14;fontFamily=Comic Sans MS;" vertex="1" parent="1">
          <mxGeometry x="750" y="416" width="240" height="90" as="geometry" />
        </mxCell>
        <mxCell id="031r3G9UxsKGXuFJxcjB-10" value="&lt;div&gt;初始值：00000000 00000000 00000000 00000010&lt;/div&gt;&lt;div&gt;左移后：&lt;b&gt;&lt;font color=&quot;#cc0000&quot;&gt;010&lt;/font&gt;00000 00000000 00000000 00000000&lt;/b&gt;&lt;/div&gt;" style="rounded=0;whiteSpace=wrap;html=1;fillColor=#d5e8d4;strokeColor=#82b366;fontSize=14;align=left;" vertex="1" parent="1">
          <mxGeometry x="750" y="496" width="520" height="90" as="geometry" />
        </mxCell>
        <mxCell id="031r3G9UxsKGXuFJxcjB-11" value="&lt;h4 style=&quot;box-sizing: inherit ; font-family: &amp;#34;pingfang sc&amp;#34; , &amp;#34;helvetica neue&amp;#34; , &amp;#34;microsoft yahei ui&amp;#34; , &amp;#34;microsoft yahei&amp;#34; , &amp;#34;noto sans cjk sc&amp;#34; , &amp;#34;sathu&amp;#34; , &amp;#34;eucrosiaupc&amp;#34; , &amp;#34;arial&amp;#34; , &amp;#34;helvetica&amp;#34; , sans-serif ; line-height: 1.8 ; margin: 30px 0px 15px ; padding: 0px ; font-size: 18px ; border: none ; text-align: justify ; background-color: rgb(255 , 255 , 255)&quot;&gt;TERMINATED = 3 &amp;lt;&amp;lt; 29&lt;/h4&gt;" style="text;whiteSpace=wrap;html=1;fontSize=14;fontFamily=Comic Sans MS;" vertex="1" parent="1">
          <mxGeometry x="750" y="586" width="240" height="90" as="geometry" />
        </mxCell>
        <mxCell id="031r3G9UxsKGXuFJxcjB-12" value="&lt;div&gt;初始值：00000000 00000000 00000000 00000011&lt;/div&gt;&lt;div&gt;左移后：&lt;b&gt;&lt;font color=&quot;#990000&quot;&gt;011&lt;/font&gt;00000 00000000 00000000 00000000&lt;/b&gt;&lt;/div&gt;" style="rounded=0;whiteSpace=wrap;html=1;fillColor=#d5e8d4;strokeColor=#82b366;fontSize=14;align=left;" vertex="1" parent="1">
          <mxGeometry x="750" y="666" width="520" height="90" as="geometry" />
        </mxCell>
        <mxCell id="031r3G9UxsKGXuFJxcjB-13" value="ctl 高3位存储线程状态，低29位存储线程数量" style="text;html=1;align=center;verticalAlign=middle;resizable=0;points=[];autosize=1;strokeColor=none;fillColor=none;fontSize=14;fontFamily=Comic Sans MS;fontColor=#990000;" vertex="1" parent="1">
          <mxGeometry x="680" y="40" width="300" height="20" as="geometry" />
        </mxCell>
      </root>
    </mxGraphModel>
  </diagram>
</mxfile>
